# xmcd
#
# Track frame offsets: 
#        150
#        18616
#        35151
#        52130
#        68815
#        84158
#        102697
#        120033
#        139959
#        154491
#
# Disc length: 2290 seconds
#
# Revision: 0
# Processed by: cddbd v1.5.2PL0 Copyright (c) Steve Scherf et al.
# Submitted via: ExactAudioCopy v1.2
#
DISCID=8c08f00a
DTITLE=Manx Marriner Mainline - Hell Bound For Heaven
DYEAR=2019
DGENRE=Blues
TTITLE0=Nothing
TTITLE1=Everybody Knows
TTITLE2=Hell Bound For Heaven
TTITLE3=My Lord
TTITLE4=My Only One
TTITLE5=Rattlesnake
TTITLE6=Wish I Had Answered
TTITLE7=Death Have No Mercy In This Land
TTITLE8=This Little Light of Mine
TTITLE9=Rise and Fall In Love
EXTD=
EXTT0=
EXTT1=
EXTT2=
EXTT3=
EXTT4=
EXTT5=
EXTT6=
EXTT7=
EXTT8=
EXTT9=
PLAYORDER=
